<svg xmlns="http://www.w3.org/2000/svg" width="960" height="540" viewBox="0 0 960 540" role="img" aria-label="flat full soccer pitch map">
  <defs>
    <linearGradient id="grass" x1="0" y1="0" x2="960" y2="540" gradientUnits="userSpaceOnUse">
      <stop stop-color="#67c953"/>
      <stop offset=".5" stop-color="#3fa447"/>
      <stop offset="1" stop-color="#1f7c3d"/>
    </linearGradient>
    <pattern id="mow" width="160" height="540" patternUnits="userSpaceOnUse">
      <rect width="80" height="540" fill="#ffffff" opacity=".08"/>
      <rect x="80" width="80" height="540" fill="#000000" opacity=".03"/>
    </pattern>
    <pattern id="dots" width="24" height="24" patternUnits="userSpaceOnUse">
      <circle cx="12" cy="12" r="1.3" fill="#0b421e" opacity=".32"/>
    </pattern>
  </defs>
  <rect width="960" height="540" rx="16" fill="url(#grass)"/>
  <rect width="960" height="540" fill="url(#mow)"/>
  <rect width="960" height="540" fill="url(#dots)"/>
  <g fill="none" stroke="#f7fff0" stroke-width="8" opacity=".9">
    <rect x="36" y="36" width="888" height="468" rx="8"/>
    <path d="M480 36v468"/>
    <circle cx="480" cy="270" r="74"/>
    <circle cx="480" cy="270" r="6" fill="#f7fff0" stroke="none"/>
    <rect x="36" y="160" width="138" height="220"/>
    <rect x="786" y="160" width="138" height="220"/>
    <rect x="36" y="214" width="54" height="112"/>
    <rect x="870" y="214" width="54" height="112"/>
    <path d="M174 202a90 90 0 0 1 0 136"/>
    <path d="M786 202a90 90 0 0 0 0 136"/>
    <path d="M36 230H9v80h27"/>
    <path d="M924 230h27v80h-27"/>
    <path d="M36 36a34 34 0 0 1 34 34M924 36a34 34 0 0 0-34 34M36 504a34 34 0 0 0 34-34M924 504a34 34 0 0 1-34-34"/>
  </g>
  <g opacity=".92">
    <rect x="142" y="24" width="360" height="46" rx="8" fill="#07121f"/>
    <text x="322" y="55" text-anchor="middle" font-family="Arial Black, Impact, sans-serif" font-size="23" fill="#ffffff">Captain Tsubasa</text>
    <rect x="518" y="24" width="300" height="46" rx="8" fill="#f5d550" stroke="#07121f" stroke-width="4"/>
    <text x="668" y="55" text-anchor="middle" font-family="Arial Black, Impact, sans-serif" font-size="22" fill="#07121f">Japan 3:2 Brazil</text>
  </g>
</svg>
